<mxfile host="app.diagrams.net" agent="Mozilla/5.0 (Macintosh; Intel Mac OS X 10_15_7) AppleWebKit/537.36 (KHTML, like Gecko) Chrome/135.0.0.0 Safari/537.36" version="26.2.8">
  <diagram name="Страница — 1" id="qoHB_6up_fqEn-yje62T">
    <mxGraphModel dx="2396" dy="2135" grid="1" gridSize="10" guides="1" tooltips="1" connect="1" arrows="1" fold="1" page="1" pageScale="1" pageWidth="827" pageHeight="1169" math="0" shadow="0">
      <root>
        <mxCell id="0" />
        <mxCell id="1" parent="0" />
        <mxCell id="Enqhm_lDuHGUesUbHaX0-10" value="" style="rounded=0;whiteSpace=wrap;html=1;strokeWidth=7;perimeterSpacing=7;fillColor=#BCFFF1;" vertex="1" parent="1">
          <mxGeometry x="-280" y="-170" width="1080" height="754" as="geometry" />
        </mxCell>
        <mxCell id="Enqhm_lDuHGUesUbHaX0-4" value="Notification-service" style="rounded=0;whiteSpace=wrap;html=1;" vertex="1" parent="1">
          <mxGeometry x="140" y="490" width="120" height="60" as="geometry" />
        </mxCell>
        <mxCell id="Enqhm_lDuHGUesUbHaX0-5" value="Catalog-service" style="rounded=0;whiteSpace=wrap;html=1;" vertex="1" parent="1">
          <mxGeometry x="50" y="170" width="120" height="60" as="geometry" />
        </mxCell>
        <mxCell id="Enqhm_lDuHGUesUbHaX0-6" value="Postge&lt;span style=&quot;background-color: transparent; color: light-dark(rgb(0, 0, 0), rgb(255, 255, 255));&quot;&gt;SQL&lt;/span&gt;" style="shape=cylinder3;whiteSpace=wrap;html=1;boundedLbl=1;backgroundOutline=1;size=15;" vertex="1" parent="1">
          <mxGeometry x="450" y="-80" width="110" height="140" as="geometry" />
        </mxCell>
        <mxCell id="Enqhm_lDuHGUesUbHaX0-7" value="Redis" style="shape=cylinder3;whiteSpace=wrap;html=1;boundedLbl=1;backgroundOutline=1;size=15;" vertex="1" parent="1">
          <mxGeometry x="450" y="100" width="110" height="140" as="geometry" />
        </mxCell>
        <mxCell id="Enqhm_lDuHGUesUbHaX0-12" value="&lt;font style=&quot;font-size: 22px;&quot;&gt;Application&lt;/font&gt;" style="text;html=1;align=center;verticalAlign=middle;whiteSpace=wrap;rounded=0;" vertex="1" parent="1">
          <mxGeometry x="-159.99866141732284" y="-130" width="109.84251968503936" height="60" as="geometry" />
        </mxCell>
        <mxCell id="Enqhm_lDuHGUesUbHaX0-1" value="Auth-service" style="rounded=0;whiteSpace=wrap;html=1;" vertex="1" parent="1">
          <mxGeometry x="50" y="-20" width="120" height="60" as="geometry" />
        </mxCell>
        <mxCell id="Enqhm_lDuHGUesUbHaX0-22" style="edgeStyle=orthogonalEdgeStyle;rounded=0;orthogonalLoop=1;jettySize=auto;html=1;entryX=0;entryY=0.5;entryDx=0;entryDy=0;" edge="1" parent="1" source="Enqhm_lDuHGUesUbHaX0-8" target="Enqhm_lDuHGUesUbHaX0-1">
          <mxGeometry relative="1" as="geometry" />
        </mxCell>
        <mxCell id="Enqhm_lDuHGUesUbHaX0-23" style="edgeStyle=orthogonalEdgeStyle;rounded=0;orthogonalLoop=1;jettySize=auto;html=1;entryX=0;entryY=0.5;entryDx=0;entryDy=0;" edge="1" parent="1" source="Enqhm_lDuHGUesUbHaX0-8" target="Enqhm_lDuHGUesUbHaX0-3">
          <mxGeometry relative="1" as="geometry" />
        </mxCell>
        <mxCell id="Enqhm_lDuHGUesUbHaX0-24" style="edgeStyle=orthogonalEdgeStyle;rounded=0;orthogonalLoop=1;jettySize=auto;html=1;" edge="1" parent="1" source="Enqhm_lDuHGUesUbHaX0-8" target="Enqhm_lDuHGUesUbHaX0-5">
          <mxGeometry relative="1" as="geometry" />
        </mxCell>
        <mxCell id="Enqhm_lDuHGUesUbHaX0-26" style="edgeStyle=orthogonalEdgeStyle;rounded=0;orthogonalLoop=1;jettySize=auto;html=1;entryX=0;entryY=0.5;entryDx=0;entryDy=0;" edge="1" parent="1" source="Enqhm_lDuHGUesUbHaX0-8" target="Enqhm_lDuHGUesUbHaX0-2">
          <mxGeometry relative="1" as="geometry" />
        </mxCell>
        <mxCell id="Enqhm_lDuHGUesUbHaX0-27" value="gRPS" style="edgeLabel;html=1;align=center;verticalAlign=middle;resizable=0;points=[];" vertex="1" connectable="0" parent="Enqhm_lDuHGUesUbHaX0-26">
          <mxGeometry x="-0.8452" y="-2" relative="1" as="geometry">
            <mxPoint x="12" y="-2" as="offset" />
          </mxGeometry>
        </mxCell>
        <mxCell id="Enqhm_lDuHGUesUbHaX0-8" value="Api-gateway" style="rounded=0;whiteSpace=wrap;html=1;" vertex="1" parent="1">
          <mxGeometry x="-240" y="170" width="120" height="60" as="geometry" />
        </mxCell>
        <mxCell id="Enqhm_lDuHGUesUbHaX0-14" style="edgeStyle=orthogonalEdgeStyle;rounded=0;orthogonalLoop=1;jettySize=auto;html=1;entryX=0;entryY=0.5;entryDx=0;entryDy=0;entryPerimeter=0;" edge="1" parent="1" source="Enqhm_lDuHGUesUbHaX0-2" target="Enqhm_lDuHGUesUbHaX0-6">
          <mxGeometry relative="1" as="geometry" />
        </mxCell>
        <mxCell id="Enqhm_lDuHGUesUbHaX0-20" style="edgeStyle=orthogonalEdgeStyle;rounded=0;orthogonalLoop=1;jettySize=auto;html=1;" edge="1" parent="1" source="Enqhm_lDuHGUesUbHaX0-2" target="Enqhm_lDuHGUesUbHaX0-18">
          <mxGeometry relative="1" as="geometry">
            <Array as="points">
              <mxPoint x="360" y="410" />
              <mxPoint x="360" y="410" />
            </Array>
          </mxGeometry>
        </mxCell>
        <mxCell id="Enqhm_lDuHGUesUbHaX0-2" value="Order-service" style="rounded=0;whiteSpace=wrap;html=1;" vertex="1" parent="1">
          <mxGeometry x="50" y="360" width="120" height="60" as="geometry" />
        </mxCell>
        <mxCell id="Enqhm_lDuHGUesUbHaX0-3" value="Payment-service" style="rounded=0;whiteSpace=wrap;html=1;" vertex="1" parent="1">
          <mxGeometry x="50" y="270" width="120" height="60" as="geometry" />
        </mxCell>
        <mxCell id="Enqhm_lDuHGUesUbHaX0-15" style="edgeStyle=orthogonalEdgeStyle;rounded=0;orthogonalLoop=1;jettySize=auto;html=1;entryX=0;entryY=0.5;entryDx=0;entryDy=0;entryPerimeter=0;" edge="1" parent="1" source="Enqhm_lDuHGUesUbHaX0-1" target="Enqhm_lDuHGUesUbHaX0-6">
          <mxGeometry relative="1" as="geometry" />
        </mxCell>
        <mxCell id="Enqhm_lDuHGUesUbHaX0-16" style="edgeStyle=orthogonalEdgeStyle;rounded=0;orthogonalLoop=1;jettySize=auto;html=1;entryX=0;entryY=0.5;entryDx=0;entryDy=0;entryPerimeter=0;" edge="1" parent="1" source="Enqhm_lDuHGUesUbHaX0-3" target="Enqhm_lDuHGUesUbHaX0-6">
          <mxGeometry relative="1" as="geometry" />
        </mxCell>
        <mxCell id="Enqhm_lDuHGUesUbHaX0-17" style="edgeStyle=orthogonalEdgeStyle;rounded=0;orthogonalLoop=1;jettySize=auto;html=1;entryX=0;entryY=0.5;entryDx=0;entryDy=0;entryPerimeter=0;" edge="1" parent="1" source="Enqhm_lDuHGUesUbHaX0-5" target="Enqhm_lDuHGUesUbHaX0-6">
          <mxGeometry relative="1" as="geometry" />
        </mxCell>
        <mxCell id="Enqhm_lDuHGUesUbHaX0-21" style="edgeStyle=orthogonalEdgeStyle;rounded=0;orthogonalLoop=1;jettySize=auto;html=1;entryX=1;entryY=0.5;entryDx=0;entryDy=0;" edge="1" parent="1" source="Enqhm_lDuHGUesUbHaX0-18" target="Enqhm_lDuHGUesUbHaX0-4">
          <mxGeometry relative="1" as="geometry">
            <Array as="points">
              <mxPoint x="330" y="440" />
              <mxPoint x="330" y="530" />
              <mxPoint x="260" y="530" />
            </Array>
          </mxGeometry>
        </mxCell>
        <mxCell id="Enqhm_lDuHGUesUbHaX0-18" value="Kafka" style="shape=cylinder3;whiteSpace=wrap;html=1;boundedLbl=1;backgroundOutline=1;size=15;" vertex="1" parent="1">
          <mxGeometry x="410" y="370" width="110" height="140" as="geometry" />
        </mxCell>
        <mxCell id="Enqhm_lDuHGUesUbHaX0-28" style="edgeStyle=orthogonalEdgeStyle;rounded=0;orthogonalLoop=1;jettySize=auto;html=1;entryX=0;entryY=0;entryDx=0;entryDy=42.5;entryPerimeter=0;" edge="1" parent="1" source="Enqhm_lDuHGUesUbHaX0-3" target="Enqhm_lDuHGUesUbHaX0-18">
          <mxGeometry relative="1" as="geometry">
            <Array as="points">
              <mxPoint x="290" y="320" />
              <mxPoint x="290" y="413" />
            </Array>
          </mxGeometry>
        </mxCell>
        <mxCell id="Enqhm_lDuHGUesUbHaX0-30" style="edgeStyle=orthogonalEdgeStyle;rounded=0;orthogonalLoop=1;jettySize=auto;html=1;entryX=0;entryY=0.5;entryDx=0;entryDy=0;" edge="1" parent="1" source="Enqhm_lDuHGUesUbHaX0-29" target="Enqhm_lDuHGUesUbHaX0-8">
          <mxGeometry relative="1" as="geometry" />
        </mxCell>
        <mxCell id="Enqhm_lDuHGUesUbHaX0-29" value="front" style="rounded=0;whiteSpace=wrap;html=1;" vertex="1" parent="1">
          <mxGeometry x="-533" y="170" width="120" height="60" as="geometry" />
        </mxCell>
        <mxCell id="Enqhm_lDuHGUesUbHaX0-31" value="BFF" style="text;html=1;align=center;verticalAlign=middle;resizable=0;points=[];autosize=1;strokeColor=none;fillColor=none;" vertex="1" parent="1">
          <mxGeometry x="-438" y="330" width="50" height="30" as="geometry" />
        </mxCell>
        <mxCell id="Enqhm_lDuHGUesUbHaX0-32" value="orders" style="ellipse;whiteSpace=wrap;html=1;" vertex="1" parent="1">
          <mxGeometry x="580" width="120" height="80" as="geometry" />
        </mxCell>
        <mxCell id="Enqhm_lDuHGUesUbHaX0-33" value="payments" style="ellipse;whiteSpace=wrap;html=1;" vertex="1" parent="1">
          <mxGeometry x="580" y="-160" width="120" height="80" as="geometry" />
        </mxCell>
        <mxCell id="Enqhm_lDuHGUesUbHaX0-34" value="items" style="ellipse;whiteSpace=wrap;html=1;" vertex="1" parent="1">
          <mxGeometry x="580" y="-80" width="120" height="80" as="geometry" />
        </mxCell>
        <mxCell id="Enqhm_lDuHGUesUbHaX0-36" value="payments" style="ellipse;whiteSpace=wrap;html=1;" vertex="1" parent="1">
          <mxGeometry x="110" y="-110" width="120" height="80" as="geometry" />
        </mxCell>
      </root>
    </mxGraphModel>
  </diagram>
</mxfile>
